<svg xmlns="http://www.w3.org/2000/svg" xmlns:xlink="http://www.w3.org/1999/xlink" version="1.1" x="0px" y="0px"
    viewBox="0 0 1024 1280" style="enable-background:new 0 0 1024 1024;" xml:space="preserve">
    <g>
        <g>
            <path
                d="M925.8,512c0,12.2,0,24.4,0,36.6c0,29.5,0,58.9,0,88.4c0,35.5,0,71,0,106.5c0,30.9,0,61.8,0,92.6    c0,15,0.1,30,0,45.1c-0.1,16.6-8.8,31.6-23.4,39.5c-7.1,3.9-14.9,5.2-22.9,5.2c-10.7,0-21.4,0-32.1,0c-21,0-42,0-63.1,0    c-28.7,0-57.3,0-86,0c-33.7,0-67.5,0-101.2,0c-35.8,0-71.5,0-107.3,0c-35.2,0-70.4,0-105.6,0c-32.1,0-64.1,0-96.2,0    c-25.9,0-51.8,0-77.6,0c-17.1,0-34.3,0-51.4,0c-8.6,0-18.2,0.9-26.6-1c-20.1-4.7-34.3-22.5-34.5-43c0-4.7,0-9.3,0-14    c0-26.8,0-53.6,0-80.3c0-35.4,0-70.8,0-106.2c0-25.9,0-51.7,0-77.6c0-3.9,0-7.8,0-11.6c-1.7,2.9-3.3,5.8-5,8.6    c19.1-9,38.2-18,57.3-27c30.4-14.4,60.9-28.7,91.3-43.1c7-3.3,14-6.6,21-9.9c-3.4,0-6.7,0-10.1,0c19.4,9.1,38.7,18.3,58.1,27.4    c30.4,14.4,60.9,28.7,91.3,43.1c6.6,3.1,13.2,6.4,19.9,9.4c4.7,2.1,8.3,1,12.5-1c3.4-1.6,6.7-3.2,10.1-4.8    c29.1-13.7,58.2-27.5,87.3-41.2c14.8-7,29.6-14,44.5-21c8.1-3.8,16.4-7.3,24.3-11.5c0.4-0.2,0.8-0.4,1.2-0.6c-3.4,0-6.7,0-10.1,0    c19.4,9.1,38.7,18.3,58.1,27.4c30.4,14.4,60.9,28.7,91.3,43.1c6.6,3.1,13.2,6.4,19.9,9.4c4.7,2.1,8.3,1,12.5-1    c3.4-1.6,6.7-3.2,10.1-4.8c29.1-13.7,58.2-27.5,87.3-41.2c22.9-10.8,46.3-20.8,68.7-32.4c0.4-0.2,0.8-0.4,1.2-0.6    c4.9-2.3,6.1-9.3,3.6-13.7c-2.9-5-8.8-5.9-13.7-3.6c-19.1,9-38.2,18-57.3,27c-30.4,14.4-60.9,28.7-91.3,43.1c-7,3.3-14,6.6-21,9.9    c3.4,0,6.7,0,10.1,0c-19.4-9.1-38.7-18.3-58.1-27.4c-30.4-14.4-60.9-28.7-91.3-43.1c-6.6-3.1-13.2-6.4-19.9-9.4    c-4.7-2.1-8.3-1-12.5,1c-3.4,1.6-6.7,3.2-10.1,4.8c-29.1,13.7-58.2,27.5-87.3,41.2c-14.8,7-29.6,14-44.5,21    c-8.1,3.8-16.4,7.3-24.3,11.5c-0.4,0.2-0.8,0.4-1.2,0.6c3.4,0,6.7,0,10.1,0c-19.4-9.1-38.7-18.3-58.1-27.4    c-30.4-14.4-60.9-28.7-91.3-43.1c-6.6-3.1-13.2-6.4-19.9-9.4c-4.7-2.1-8.3-1-12.5,1c-3.4,1.6-6.7,3.2-10.1,4.8    c-29.1,13.7-58.2,27.5-87.3,41.2c-22.9,10.8-46.3,20.8-68.7,32.4c-0.4,0.2-0.8,0.4-1.2,0.6c-3.1,1.5-5,5.4-5,8.6    c0,15.3,0,30.6,0,45.9c0,33.5,0,67,0,100.6c0,33.1,0,66.3,0,99.4c0,15.7-0.9,31.7,0.1,47.4C80,911.9,98,935.1,123.5,943    c7.1,2.2,14.4,2.8,21.8,2.8c11.4,0,22.8,0,34.2,0c21.9,0,43.8,0,65.8,0c29.6,0,59.1,0,88.7,0c34.2,0,68.4,0,102.6,0    c36.3,0,72.6,0,108.9,0c35.4,0,70.9,0,106.3,0c31.6,0,63.2,0,94.8,0c25.2,0,50.4,0,75.7,0c15.8,0,31.7,0,47.5,0    c16.2,0,31.8-0.7,46.2-9.9c18.6-12,29.7-32.4,29.9-54.5c0-4.5,0-9,0-13.5c0-24.1,0-48.3,0-72.4c0-34.9,0-69.8,0-104.7    c0-34.1,0-68.2,0-102.4c0-22.4,0-44.7,0-67.1c0-3.2,0-6.3,0-9.5C945.8,499.1,925.8,499.1,925.8,512z" />
        </g>
    </g>
    <g>
        <g>
            <path
                d="M925.8,142.2c0,32.7,0,65.5,0,98.2c0,52,0,103.9,0,155.9c0,11.9,0,23.9,0,35.8c1.7-2.9,3.3-5.8,5-8.6    c-19.1,9-38.2,18-57.3,27c-30.4,14.4-60.9,28.7-91.3,43.1c-7,3.3-14,6.6-21,9.9c3.4,0,6.7,0,10.1,0c-19.4-9.1-38.7-18.3-58.1-27.4    c-30.4-14.4-60.9-28.7-91.3-43.1c-6.6-3.1-13.2-6.4-19.9-9.4c-4.7-2.1-8.3-1-12.5,1c-3.4,1.6-6.7,3.2-10.1,4.8    c-29.1,13.7-58.2,27.5-87.3,41.2c-14.8,7-29.6,14-44.5,21c-8.1,3.8-16.4,7.3-24.3,11.5c-0.4,0.2-0.8,0.4-1.2,0.6    c3.4,0,6.7,0,10.1,0c-19.4-9.1-38.7-18.3-58.1-27.4c-30.4-14.4-60.9-28.7-91.3-43.1c-6.6-3.1-13.2-6.4-19.9-9.4    c-4.7-2.1-8.3-1-12.5,1c-3.4,1.6-6.7,3.2-10.1,4.8c-29.1,13.7-58.2,27.5-87.3,41.2c-14.8,7-29.6,14-44.5,21    c-8.1,3.8-16.4,7.2-24.3,11.5c-0.4,0.2-0.8,0.4-1.2,0.6c5,2.9,10,5.8,15,8.6c0-28.8,0-57.5,0-86.3c0-55.9,0-111.7,0-167.6    c0-37.4,0-74.8,0-112.2c0-5.4,0.2-10.6,1.7-15.8c4.7-16.6,19.6-29.6,36.8-31.6c5.7-0.7,11.6-0.3,17.3-0.3c29.6,0,59.2,0,88.8,0    c48.8,0,97.6,0,146.4,0c57.2,0,114.5,0,171.7,0c54,0,108,0,162.1,0c39.4,0,78.8,0,118.2,0c10.7,0,21.3,0,32,0c9.3,0,18.2-0.1,27,4    C915.7,109.5,925.6,125,925.8,142.2c0.2,12.9,20.2,12.9,20,0c-0.5-35.4-29.3-63.7-64.6-64c-6.2,0-12.5,0-18.7,0    c-33.5,0-67,0-100.4,0c-51.7,0-103.4,0-155.1,0c-58.1,0-116.3,0-174.4,0c-52.8,0-105.6,0-158.3,0c-35.7,0-71.4,0-107.1,0    c-7.7,0-15.3,0-23,0c-27.4,0-51.9,15.8-61.9,41.6c-4.9,12.7-4.1,26.2-4.1,39.5c0,19.1,0,38.3,0,57.4c0,56,0,112,0,168    c0,40.3,0,80.7,0,121c0,2.1,0,4.2,0,6.3c0,8.1,8.4,11.8,15,8.6c19.1-9,38.2-18,57.3-27c30.4-14.4,60.9-28.7,91.3-43.1    c7-3.3,14-6.6,21-9.9c-3.4,0-6.7,0-10.1,0c19.4,9.1,38.7,18.3,58.1,27.4c30.4,14.4,60.9,28.7,91.3,43.1c6.6,3.1,13.2,6.4,19.9,9.4    c4.7,2.1,8.3,1,12.5-1c3.4-1.6,6.7-3.2,10.1-4.8c29.1-13.7,58.2-27.5,87.3-41.2c14.8-7,29.6-14,44.5-21    c8.1-3.8,16.4-7.3,24.3-11.5c0.4-0.2,0.8-0.4,1.2-0.6c-3.4,0-6.7,0-10.1,0c19.4,9.1,38.7,18.3,58.1,27.4    c30.4,14.4,60.9,28.7,91.3,43.1c6.6,3.1,13.2,6.4,19.9,9.4c4.7,2.1,8.3,1,12.5-1c3.4-1.6,6.7-3.2,10.1-4.8    c29.1-13.7,58.2-27.5,87.3-41.2c22.9-10.8,46.3-20.8,68.7-32.4c0.4-0.2,0.8-0.4,1.2-0.6c3.1-1.5,5-5.4,5-8.6c0-32.7,0-65.5,0-98.2    c0-52,0-103.9,0-155.9c0-11.9,0-23.9,0-35.8C945.8,129.3,925.8,129.3,925.8,142.2z" />
        </g>
    </g>
</svg>